<svg width="24" height="24" viewBox="0 0 24 24" fill="none" xmlns="http://www.w3.org/2000/svg">
<g id="moon">
<path id="moon_2" d="M20.8481 15.7484C20.6657 15.5394 20.3595 15.4621 20.09 15.5521C19.3346 15.8041 18.5152 15.9333 17.6523 15.9333C13.5242 15.9333 10.1664 12.8072 10.1664 8.96667C10.1664 6.655 11.3927 4.50293 13.4466 3.2084C13.6793 3.06147 13.7909 2.79673 13.7283 2.54213C13.6657 2.28753 13.4411 2.095 13.1621 2.057C12.8436 2.01393 12.5265 2 12.208 2C6.57864 2 2 6.26107 2 11.5C2 16.7389 6.57864 21 12.208 21C15.7808 21 19.0311 19.3103 20.8998 16.4805C21.0509 16.2513 21.0291 15.9587 20.8481 15.7484Z" fill="black"/>
<g id="sun">
<path id="Vector" d="M15.2222 7.77777C14.2778 6.83332 12.9444 6.22221 11.5 6.22221C10.0555 6.22221 8.7222 6.80555 7.77775 7.77777C6.83331 8.72221 6.2222 10.0555 6.2222 11.5C6.2222 12.9444 6.83331 14.2778 7.77775 15.2222C8.7222 16.1667 10.0555 16.7778 11.5 16.7778C12.9444 16.7778 14.2778 16.1944 15.2222 15.2222C16.1666 14.2778 16.7778 12.9444 16.7778 11.5C16.7778 10.0555 16.1944 8.72221 15.2222 7.77777Z" fill="black"/>
<path id="Vector_2" d="M11.5 4.58333C11.8889 4.58333 12.2222 4.25 12.2222 3.86111V1.72222C12.2222 1.33333 11.8889 1 11.5 1C11.1111 1 10.7778 1.33333 10.7778 1.72222V3.86111C10.7778 4.25 11.1111 4.58333 11.5 4.58333Z" fill="black"/>
<path id="Vector_3" d="M17.4167 6.61111L18.9445 5.08333C19.2222 4.80556 19.2222 4.36111 18.9445 4.08333C18.6667 3.80556 18.2222 3.80556 17.9445 4.08333L16.4167 5.61111C16.1389 5.88889 16.1389 6.33333 16.4167 6.61111C16.6667 6.88889 17.1111 6.88889 17.4167 6.61111Z" fill="black"/>
<path id="Vector_4" d="M21.2778 10.7778H19.1389C18.75 10.7778 18.4167 11.1111 18.4167 11.5C18.4167 11.8889 18.75 12.2222 19.1389 12.2222H21.2778C21.6667 12.2222 22 11.8889 22 11.5C22 11.1111 21.6667 10.7778 21.2778 10.7778Z" fill="black"/>
<path id="Vector_5" d="M17.3889 16.3889C17.1111 16.1111 16.6667 16.1111 16.3889 16.3889C16.1111 16.6667 16.1111 17.1111 16.3889 17.3889L17.9167 18.9167C18.1945 19.1944 18.6389 19.1944 18.9167 18.9167C19.1945 18.6389 19.1945 18.1944 18.9167 17.9167L17.3889 16.3889Z" fill="black"/>
<path id="Vector_6" d="M11.5 18.4166C11.1111 18.4166 10.7778 18.75 10.7778 19.1389V21.2778C10.7778 21.6667 11.1111 22 11.5 22C11.8889 22 12.2222 21.6667 12.2222 21.2778V19.1389C12.2222 18.75 11.8889 18.4166 11.5 18.4166Z" fill="black"/>
<path id="Vector_7" d="M5.58331 16.3889L4.05553 17.9167C3.77775 18.1944 3.77775 18.6389 4.05553 18.9167C4.33331 19.1944 4.77775 19.1944 5.05553 18.9167L6.58331 17.3889C6.86109 17.1111 6.86109 16.6667 6.58331 16.3889C6.33331 16.1111 5.88887 16.1111 5.58331 16.3889Z" fill="black"/>
<path id="Vector_8" d="M4.58333 11.5C4.58333 11.1111 4.25 10.7778 3.86111 10.7778H1.72222C1.33333 10.7778 1 11.1111 1 11.5C1 11.8889 1.33333 12.2222 1.72222 12.2222H3.86111C4.25 12.2222 4.58333 11.8889 4.58333 11.5Z" fill="black"/>
<path id="Vector_9" d="M5.58331 6.61111C5.86109 6.88889 6.30553 6.88889 6.58331 6.61111C6.86109 6.33333 6.86109 5.88889 6.58331 5.61111L5.05553 4.08333C4.77775 3.80556 4.33331 3.80556 4.05553 4.08333C3.77775 4.36111 3.77775 4.80556 4.05553 5.08333L5.58331 6.61111Z" fill="black"/>
</g>
</g>
</svg>
